<svg width="400" height="400" viewBox="0 0 400 400" xmlns="http://www.w3.org/2000/svg">
    <rect x="0" y="0" width="400" height="400" rx="40" ry="40" fill="white"/>
    <svg fill="#6EF68B" viewBox="-2.09 0 192.54 192.54" xmlns="http://www.w3.org/2000/svg" stroke="#C9F1D2" width="350" x="24">
        <path d="M119.05,22.23c-.85,17-.45,149.43.4,152.63h51.46c.7-6,.48-149.12-.31-152.41Q144.92,32.36,119.05,22.23Z"></path>
        <path d="M17.72,174.87H69.33V22.22a68.93,68.93,0,0,1-51.45.32c-.36.56-.59.77-.63,1a9.92,9.92,0,0,0-.11,1.63l.12,149.13c0,.11.12.23.2.33Z"></path>
        <path d="M12.83,15.34c20.49,0,41,.07,61.48-.07,3.66,0,6.72.59,9,3.6a10.74,10.74,0,0,0,1.31,1.21l3.59.58a5.9,5.9,0,0,1,.51.49.74.74,0,0,1,.19.36c.07,60.9.13,110.13.19,171H99.35c-.27-62.12-.13-169,.45-171.75l3.81-.71a4.24,4.24,0,0,0,.65-.46c5.34-5,3.58-4.26,10.77-4.27q30.12,0,60.24,0H180l8.39-10.46H108.72L103.61,0H84.82L79.73,4.78H0L8.36,15.34ZM118.36,8.77h53.56v3.28H118.36Zm-101.9,0H70v3.28H16.46Z"></path>
    </svg>

    <svg viewBox="0 0 24 24" fill="6EF68B" xmlns="http://www.w3.org/2000/svg" width="50" x="80" y="-80">
        <path fill-rule="evenodd" clip-rule="evenodd"
              d="M3.15452 1.01195C5.11987 1.32041 7.17569 2.2474 8.72607 3.49603C9.75381 3.17407 10.8558 2.99995 12 2.99995C13.1519 2.99995 14.261 3.17641 15.2946 3.5025C16.882 2.27488 18.8427 1.31337 20.8354 1.01339C21.2596 0.95092 21.7008 1.16534 21.8945 1.55273C22.6719 3.38958 22.6983 5.57987 22.2202 7.49248L22.2128 7.52213C22.0847 8.03536 21.9191 8.69868 21.3876 8.92182C21.7827 9.89315 22 10.9466 22 12.0526C22 14.825 20.8618 17.6774 19.8412 20.2348L19.8412 20.2348L19.7379 20.4936C19.1182 22.0486 17.7316 23.1196 16.125 23.418L13.8549 23.8397C13.1549 23.9697 12.4562 23.7172 12 23.2082C11.5438 23.7172 10.8452 23.9697 10.1452 23.8397L7.87506 23.418C6.26852 23.1196 4.88189 22.0486 4.26214 20.4936L4.15891 20.2348C3.13833 17.6774 2.00004 14.825 2.00004 12.0526C2.00004 10.9466 2.21737 9.89315 2.6125 8.92182C2.08046 8.69845 1.91916 8.05124 1.7909 7.53658L1.7799 7.49248C1.32311 5.66527 1.23531 3.2968 2.10561 1.55273C2.29827 1.16741 2.72906 0.945855 3.15452 1.01195ZM6.58478 4.44052C5.45516 5.10067 4.47474 5.9652 3.71373 6.98132C3.41572 5.76461 3.41236 4.41153 3.67496 3.18754C4.68842 3.48029 5.68018 3.89536 6.58478 4.44052ZM20.2863 6.98133C19.5303 5.97184 18.5577 5.11195 17.4374 4.45347C18.3364 3.9005 19.3043 3.45749 20.3223 3.17455C20.5884 4.40199 20.5853 5.76068 20.2863 6.98133ZM8.85364 5.56694C9.81678 5.20285 10.8797 4.99995 12 4.99995C13.1204 4.99995 14.1833 5.20285 15.1464 5.56694C18.0554 6.66661 20 9.1982 20 12.0526C20 14.4676 18.9891 16.9876 18.0863 19.238L18.0862 19.2382C18.0167 19.4115 17.9478 19.5832 17.8801 19.7531C17.5291 20.6338 16.731 21.2712 15.7597 21.4516L13.4896 21.8733L12.912 20.5896C12.7505 20.2307 12.3935 19.9999 12 19.9999C11.6065 19.9999 11.2496 20.2307 11.0881 20.5896L10.5104 21.8733L8.24033 21.4516C7.26908 21.2712 6.471 20.6338 6.12001 19.7531C6.05237 19.5834 5.98357 19.4119 5.91414 19.2388L5.91395 19.2384L5.91381 19.238C5.01102 16.9876 4.00004 14.4676 4.00004 12.0526C4.00004 9.1982 5.94472 6.66661 8.85364 5.56694ZM10.5 15.9999C10.1212 15.9999 9.77497 16.2139 9.60557 16.5527C9.43618 16.8915 9.47274 17.2969 9.7 17.5999L11.2 19.5999C11.3889 19.8517 11.6852 19.9999 12 19.9999C12.3148 19.9999 12.6111 19.8517 12.8 19.5999L14.3 17.5999C14.5273 17.2969 14.5638 16.8915 14.3944 16.5527C14.225 16.2139 13.8788 15.9999 13.5 15.9999H10.5ZM9.62134 11.1212C9.62134 11.9497 8.94977 12.6212 8.12134 12.6212C7.29291 12.6212 6.62134 11.9497 6.62134 11.1212C6.62134 10.2928 7.29291 9.62125 8.12134 9.62125C8.94977 9.62125 9.62134 10.2928 9.62134 11.1212ZM16 12.4999C16.8284 12.4999 17.5 11.8284 17.5 10.9999C17.5 10.1715 16.8284 9.49994 16 9.49994C15.1716 9.49994 14.5 10.1715 14.5 10.9999C14.5 11.8284 15.1716 12.4999 16 12.4999Z"
              fill="#fff"></path>
    </svg>

    <svg viewBox="0 0 24 24" fill="none" xmlns="http://www.w3.org/2000/svg" width="50" x="270" y="-80">
        <path fill-rule="evenodd" clip-rule="evenodd"
              d="M3.03675 2.49516C3.262 2.10996 3.7152 1.92062 4.14754 2.03109C5.97557 2.49817 7.55118 3.2517 9.03129 4.3653C9.96974 4.05942 10.9671 3.8947 12 3.8947C13.0328 3.8947 14.0302 4.05942 14.9687 4.3653C16.4488 3.2517 18.0244 2.49817 19.8524 2.03109C20.2848 1.92062 20.738 2.10996 20.9632 2.49516C21.6136 3.60735 21.682 4.84507 21.5423 5.95618C21.4242 6.89524 21.1479 7.81637 20.8761 8.60644C21.5951 10.0574 22 11.7048 22 13.4473C22 14.0796 21.9465 14.6779 21.8433 15.242L22.7737 15.0259C23.3117 14.9009 23.8491 15.2357 23.974 15.7737C24.099 16.3117 23.7642 16.8491 23.2262 16.974L21.0977 17.4685C20.7875 18.072 20.4027 18.6166 19.9517 19.1014L20.6281 19.7012C21.0414 20.0677 21.0793 20.6997 20.7129 21.1129C20.3465 21.5261 19.7144 21.5641 19.3012 21.1976L18.3886 20.3884C16.6081 21.5099 14.358 22 12 22C9.64192 22 7.39187 21.5099 5.61135 20.3884L4.69872 21.1977C4.2855 21.5641 3.65348 21.5261 3.28705 21.1129C2.92063 20.6997 2.95856 20.0677 3.37179 19.7012L4.04822 19.1014C3.59721 18.6166 3.21244 18.072 2.90229 17.4685L0.773707 16.974C0.235747 16.8491 -0.0990517 16.3117 0.0259144 15.7737C0.150881 15.2357 0.688289 14.9009 1.22625 15.0259L2.15669 15.242C2.05349 14.6779 1.99998 14.0796 1.99998 13.4473C1.99998 11.7048 2.40488 10.0574 3.12385 8.60644C2.85211 7.81637 2.57578 6.89524 2.45771 5.95618C2.318 4.84507 2.38635 3.60735 3.03675 2.49516ZM19.6556 15.7502L16.3923 16.5082C16.028 16.5929 15.7414 16.8737 15.6494 17.2363C15.5573 17.5988 15.6753 17.9824 15.9551 18.2305L16.8095 18.9881C15.5088 19.6568 13.8601 20 12 20C10.1399 20 8.49112 19.6568 7.19043 18.9881L8.04479 18.2305C8.32463 17.9824 8.44261 17.5988 8.35058 17.2363C8.25855 16.8738 7.97191 16.5929 7.60759 16.5083L4.34436 15.7502C4.12161 15.0798 3.99998 14.3155 3.99998 13.4473C3.99998 11.8822 4.39737 10.4207 5.08744 9.16612C5.22557 8.915 5.24931 8.61669 5.15264 8.34688C4.84532 7.48912 4.55212 6.58184 4.44208 5.70667C4.37247 5.15308 4.3816 4.65327 4.48556 4.21124C5.85937 4.66259 7.05992 5.32724 8.21953 6.26906C8.49981 6.49669 8.88102 6.55556 9.21691 6.42307C10.0831 6.08142 11.0202 5.8947 12 5.8947C12.9798 5.8947 13.9169 6.08142 14.7831 6.42307C15.1189 6.55556 15.5002 6.49669 15.7804 6.26906C16.94 5.32724 18.1406 4.66259 19.5144 4.21124C19.6184 4.65327 19.6275 5.15308 19.5579 5.70667C19.4478 6.58184 19.1546 7.48912 18.8473 8.34688C18.7506 8.61669 18.7744 8.915 18.9125 9.16612C19.6026 10.4207 20 11.8822 20 13.4473C20 14.3155 19.8784 15.0798 19.6556 15.7502ZM16 13.5C16.8284 13.5 17.5 12.8284 17.5 12C17.5 11.1715 16.8284 10.5 16 10.5C15.1716 10.5 14.5 11.1715 14.5 12C14.5 12.8284 15.1716 13.5 16 13.5ZM8.12132 13.6213C8.94974 13.6213 9.62132 12.9497 9.62132 12.1213C9.62132 11.2928 8.94974 10.6213 8.12132 10.6213C7.29289 10.6213 6.62132 11.2928 6.62132 12.1213C6.62132 12.9497 7.29289 13.6213 8.12132 13.6213ZM11 15C10.5955 15 10.2309 15.2436 10.0761 15.6173C9.92132 15.991 10.0069 16.4211 10.2929 16.7071L11.2929 17.7071C11.6834 18.0976 12.3166 18.0976 12.7071 17.7071L13.7071 16.7071C13.9931 16.4211 14.0786 15.991 13.9239 15.6173C13.7691 15.2436 13.4044 15 13 15H11Z"
              fill="#fff"></path>
    </svg>

    <svg viewBox="0 0 48 48" fill="none" xmlns="http://www.w3.org/2000/svg" stroke="#fff" width="60" x="75" y="0">

        <path fill-rule="evenodd" clip-rule="evenodd"
              d="M25 5.00854C25 4.45626 24.5523 4.00854 24 4.00854C23.4477 4.00854 23 4.45626 23 5.00854V12.3308C22.077 12.9544 21.2829 14.4212 20.744 16.3996L20.294 16.4781L17.854 14.0137V10.3892C17.854 10.1257 17.75 9.87287 17.5646 9.68563L13.5687 5.64982C13.1801 5.25736 12.5469 5.25421 12.1545 5.64279C11.762 6.03137 11.7589 6.66453 12.1475 7.05699L15.854 10.8005V14.425C15.854 14.6885 15.958 14.9414 16.1434 15.1286L17.8939 16.8967L6.11628 18.9507C5.63196 21.2735 6.40687 25.9191 13.381 25.9191C13.5933 25.9191 13.8007 25.913 14.0034 25.9013L12.2996 27.0485C11.9812 27.2628 11.8137 27.6404 11.8682 28.0202L12.7464 34.1309L9.27111 36.4709C8.813 36.7794 8.69168 37.4008 9.00014 37.8589C9.3086 38.317 9.93003 38.4383 10.3882 38.1299L14.384 35.4393C14.7024 35.225 14.8699 34.8474 14.8154 34.4676L13.9372 28.3569L17.0432 26.2656L16.1434 27.1744C15.8789 27.4415 15.7865 27.8344 15.9044 28.1914L18.4447 35.8886L15.3611 42.5723C15.1297 43.0738 15.3487 43.6679 15.8502 43.8993C16.3517 44.1306 16.9458 43.9116 17.1772 43.4102L20.4259 36.3685C20.5321 36.1385 20.5469 35.8768 20.4675 35.6362L17.9956 28.1463L20.215 25.9047C20.7537 30.0326 22.2448 33 24 33C25.7586 33 27.2522 30.0208 27.7882 25.8801L30.0319 28.1462L27.56 35.6361C27.4806 35.8767 27.4954 36.1384 27.6015 36.3684L30.8499 43.41C31.0813 43.9115 31.6753 44.1305 32.1768 43.8992C32.6783 43.6679 32.8973 43.0738 32.666 42.5723L29.5827 35.8886L32.1231 28.1913C32.2409 27.8343 32.1486 27.4415 31.8841 27.1743L30.9843 26.2655L34.0903 28.3568L33.2117 34.4675C33.1571 34.8473 33.3247 35.2249 33.643 35.4393L37.6389 38.1298C38.0971 38.4383 38.7185 38.317 39.027 37.8588C39.3354 37.4007 39.2141 36.7793 38.756 36.4708L35.2807 34.1308L36.1592 28.0202C36.2138 27.6404 36.0463 27.2628 35.7279 27.0484L34.0243 25.9013C34.2268 25.9131 34.434 25.9191 34.6461 25.9191C41.6202 25.9191 42.3951 21.2735 41.9108 18.9507L30.1336 16.8967L31.8841 15.1287C32.0695 14.9415 32.1735 14.6886 32.1735 14.4251V10.8006L35.88 7.0571C36.2686 6.66464 36.2655 6.03148 35.873 5.6429C35.4805 5.25433 34.8474 5.25747 34.4588 5.64993L30.4629 9.68574C30.2775 9.87298 30.1735 10.1258 30.1735 10.3893V14.0138L27.7335 16.4782L27.2547 16.3947C26.7158 14.4187 25.9223 12.9539 25 12.3308V5.00854ZM19.7301 18.7511L19.608 18.6279L8.03352 20.6465C8.10113 21.1649 8.27393 21.7021 8.59616 22.1676C9.13245 22.9423 10.3633 23.9191 13.381 23.9191C16.1165 23.9191 17.6933 22.7016 18.6733 21.1785C19.1611 20.4203 19.5034 19.5746 19.7301 18.7511ZM28.2971 18.7515C28.5238 19.5749 28.8661 20.4205 29.3539 21.1785C30.3338 22.7016 31.9106 23.9191 34.6461 23.9191C37.6638 23.9191 38.8947 22.9423 39.4309 22.1676C39.7532 21.7021 39.926 21.1649 39.9936 20.6465L28.4195 18.628L28.2971 18.7515ZM26 22.5C26 25.2201 25.5765 27.5928 24.9595 29.2126C24.6483 30.0295 24.3265 30.5526 24.0709 30.8364C24.0449 30.8652 24.0213 30.8899 24 30.911C23.9787 30.8899 23.9551 30.8652 23.9291 30.8364C23.6735 30.5526 23.3517 30.0295 23.0405 29.2126C22.4235 27.5928 22 25.2201 22 22.5C22 19.7799 22.4235 17.4072 23.0405 15.7874C23.3517 14.9705 23.6735 14.4474 23.9291 14.1636C23.9551 14.1348 23.9787 14.1101 24 14.089C24.0213 14.1101 24.0449 14.1348 24.0709 14.1636C24.3265 14.4474 24.6483 14.9705 24.9595 15.7874C25.5765 17.4072 26 19.7799 26 22.5ZM23.8578 31.0254C23.8578 31.025 23.8614 31.023 23.8685 31.0201C23.8614 31.0243 23.8578 31.0257 23.8578 31.0254ZM24.1315 31.0201C24.1386 31.023 24.1422 31.025 24.1422 31.0254C24.1422 31.0257 24.1386 31.0243 24.1315 31.0201Z"
              fill="#fff"></path>
    </svg>
    <svg fill="#fff" xmlns="http://www.w3.org/2000/svg"
         width="50" height="50" x="270" y="180" viewBox="0 0 739.34 739.34"  stroke="#fff">
        <path d="M671.613,550.213c-0.328-1.006-32.922-102.904-32.922-325.654c0-30.131-6.632-59.346-19.718-86.834 c-12.564-26.394-30.51-51.687-53.339-71.97C519.091,24.399,457.341,0,391.75,0h-44.444c-65.583,0-127.341,24.399-173.884,65.754 c-22.829,20.283-40.774,44.765-53.339,71.159c-13.085,27.488-19.718,57.113-19.718,87.244c0,110.712-8.991,193.691-16.532,243.636 c-8.172,54.105-16.45,82.51-16.524,82.777l-3.625,12.215l10.629,6.967c3.26,2.129,16.093,9.088,44.184,9.088 c10.845,0,22.739-1.049,35.527-3.133c0.067,12.459-1.213,31.172-6.997,54.307l-8.217,32.848l31.262-13.004 c1.266-0.529,27.503-11.5,58.862-28.984c4.421,5.434,9.192,10.658,14.313,15.623c25.88,25.076,58.281,41.504,93.474,47.809 c3.32,5.523,6.379,10.666,9.148,15.311c3.632,6.096,6.766,11.359,9.49,15.832l14.537,23.893l14.537-23.893 c2.725-4.48,5.865-9.742,9.49-15.84c2.791-4.689,5.88-9.877,9.237-15.459c34.864-6.416,66.953-22.785,92.625-47.652 c5.129-4.965,9.899-10.189,14.313-15.623c31.359,17.477,57.604,28.455,58.862,28.984l31.262,13.002l-8.217-32.846 c-5.784-23.135-7.064-41.84-6.997-54.301c12.787,2.084,24.682,3.143,35.527,3.143l0,0c28.091,0,40.923-6.953,44.184-9.082 l10.935-7.145L671.613,550.213z M258.574,603.113c-7.465-8.59-13.889-18.059-19.062-28.219 c-6.982-13.688-11.708-28.635-13.711-44.385c9.498,9.707,19.36,20.908,29.558,33.584c3.215,3.998,6.461,8.121,9.743,12.408 c3.692,4.824,7.339,9.723,10.927,14.656c12.029,16.531,23.387,33.473,33.696,49.521 C289.881,631.971,272.426,619.049,258.574,603.113z M499.545,574.902c-5.181,10.16-11.597,19.621-19.062,28.217 c-13.599,15.646-30.682,28.383-50.079,37.092c10.153-15.795,21.318-32.424,33.123-48.68c3.67-5.055,7.406-10.078,11.188-15.021 c3.186-4.16,6.342-8.172,9.461-12.064c9.988-12.432,19.65-23.463,28.962-33.049C511.082,546.826,506.4,561.467,499.545,574.902z M511.589,486.23c-17.091,14.447-34.933,33.256-53.704,56.598c-3.372,4.191-6.767,8.516-10.197,12.996 c-3.581,4.676-7.108,9.408-10.585,14.174c-20.834,28.545-39.644,58.102-54.619,82.621c-3.789,6.207-7.339,12.094-10.614,17.559 c-0.662,1.109-1.325,2.211-1.965,3.281c-0.64-1.07-1.295-2.166-1.958-3.273c-3.26-5.441-6.803-11.314-10.577-17.5 c-15.058-24.652-33.994-54.412-54.969-83.113c-3.372-4.615-6.796-9.207-10.272-13.748c-3.543-4.629-7.049-9.096-10.525-13.412 c-18.891-23.439-36.837-42.301-54.024-56.732c-4.994-4.191-9.922-8.01-14.79-11.457c-5.069-3.588-10.063-6.779-15.006-9.572 c-3.685-2.084-7.332-3.951-10.949-5.596c4.176-7.578,11.895-19.234,23.395-32.811c6.066-7.16,11.812-13.221,17.008-18.17 c9.937-9.469,17.849-14.865,22.077-16.1c20.097-5.881,33.145-18.572,44.652-29.766c4.228-4.109,8.24-7.994,12.513-11.545 c0.305-0.253,0.603-0.521,0.908-0.767c4.466-3.632,9.074-7.756,13.941-12.125c14.299-12.817,33.875-30.384,47.98-30.384 l0.61,0.007l0.61-0.007c14.105,0,33.688,17.559,47.987,30.384c4.868,4.369,9.476,8.493,13.941,12.125 c0.499,0.41,0.982,0.834,1.474,1.25c4.057,3.424,7.912,7.138,11.947,11.068c11.507,11.194,24.548,23.886,44.652,29.767 c3.796,1.109,10.547,5.566,19.069,13.301c5.947,5.396,12.751,12.393,20.008,20.961c11.5,13.576,19.219,25.232,23.395,32.811 c-3.833,1.74-7.696,3.736-11.604,5.961c-4.942,2.822-9.938,6.045-15.006,9.662C521.511,478.16,516.583,482.01,511.589,486.23z M620.566,544.809c-13.599,0-29.505-2.047-47.295-6.08l-17.053-3.871l-3.401,17.156c-0.209,1.064-3.968,20.76-0.053,52.811 c-7.197-3.572-15.311-7.764-23.818-12.453c12.706-24.152,19.435-51.061,19.435-78.98c0-4.123-0.156-8.225-0.446-12.297 c10.041-6.975,19.554-11.879,28.516-14.67c8.708-2.725,14.283-10.682,14.201-20.291c-0.156-17.291-20.804-44.727-33.107-59.539 c-12.476-15.035-36.54-41.17-57.471-47.295c-11.983-3.506-20.551-11.843-30.473-21.497c-4.86-4.727-9.893-9.625-15.69-14.336 c-3.818-3.104-8.121-5.932-12.677-10.019c-19.419-17.403-43.58-38.043-70.719-38.043c-0.201,0-0.41,0-0.61,0 c-0.201,0-0.41,0-0.61,0c-27.131,0-51.292,20.64-70.712,38.05c-4.556,4.086-8.858,7.428-12.684,10.532 c-5.798,4.712-10.83,9.349-15.69,14.075c-9.922,9.654-18.489,17.857-30.473,21.37c-20.938,6.126-44.995,32.201-57.47,47.236 c-12.296,14.812-32.952,42.219-33.108,59.51c-0.089,9.602,5.486,17.551,14.202,20.268c8.739,2.732,18.013,7.465,27.786,14.172 c-0.312,4.236-0.477,8.5-0.477,12.789c0,27.92,6.729,54.826,19.435,78.98c-8.515,4.689-16.621,8.881-23.818,12.453 c3.915-32.051,0.164-51.746-0.052-52.811l-3.402-17.158l-17.052,3.871c-17.79,4.035-33.696,6.082-47.295,6.082 c-5.821,0-10.555-0.381-14.321-0.908c3.35-14.18,8.254-37.479,13.16-69.76c7.793-51.27,17.075-136.228,17.075-249.62 c0.007-103.269,95.513-187.319,212.91-187.319h44.444c117.396,0,212.902,84.05,212.902,187.305 c0,179.006,20.439,281.484,29.93,319.402C630.868,544.43,626.231,544.809,620.566,544.809z"></path>
        <polygon
                points="420.177,371.35 404.39,377.713 404.359,377.721 388.609,384.07 410.143,437.477 425.923,431.111 441.71,424.748 425.469,384.479 "></polygon>
        <polygon
                points="335.188,377.609 319.662,371.35 314.511,384.113 298.128,424.748 313.908,431.111 329.695,437.477 351.221,384.07 335.441,377.713 "></polygon>
        <path d="M563.021,207.833c-59.979-2.255-93.228,17.067-108.598,30.004c-2.896,2.188-5.509,4.689-7.764,7.443 c-1.802,2.01-2.754,3.335-2.955,3.625l0.208,0.142c-0.469,0.722-0.923,1.451-1.347,2.196c-5.575,9.855-6.535,21.184-2.628,31.083 c5.479,13.882,19.666,22.851,36.146,22.851l0,0c5.939,0,11.835-1.139,17.514-3.379c21.929-8.657,33.54-31.485,25.881-50.883 c-1.809-4.578-4.562-8.62-8.039-11.984c18.117-4.518,36.465-5.181,50.593-4.652c7.294,0.268,13.45-5.426,13.726-12.736 C576.025,214.25,570.324,208.101,563.021,207.833z M481.093,270.142c-1.66,0.655-3.394,0.998-5.009,0.998l0,0 c-2.844,0-4.325-1.027-4.489-1.325c-0.186-0.759,1.452-4.637,6.722-6.721c1.66-0.655,3.395-0.998,5.017-0.998 c2.852,0,4.317,1.027,4.488,1.325C488.008,264.18,486.363,268.058,481.093,270.142z"></path>
        <path d="M295.91,244.983l0.208-0.141c-0.275-0.395-1.288-1.794-3.141-3.856c-2.062-2.486-4.406-4.756-6.997-6.773 c-4.362-3.744-10.25-8.061-17.894-12.251c-24.474-13.413-55.185-19.539-91.285-18.184c-7.31,0.275-13.003,6.416-12.736,13.718 c0.275,7.31,6.431,12.989,13.726,12.736c20.767-0.782,37.462,1.37,50.585,4.66c-3.468,3.364-6.223,7.398-8.031,11.976 c-7.659,19.397,3.953,42.226,25.881,50.883c5.679,2.24,11.574,3.379,17.514,3.379c16.472,0,30.667-8.977,36.145-22.859 c3.908-9.899,2.948-21.228-2.627-31.083C296.833,246.435,296.379,245.705,295.91,244.983z M263.74,267.083 c-1.623,0-3.357-0.35-5.017-1.005c-5.27-2.077-6.907-5.955-6.721-6.729c0.164-0.29,1.63-1.317,4.481-1.317 c1.623,0,3.357,0.35,5.017,1.005c5.27,2.084,6.908,5.962,6.722,6.729C268.057,266.062,266.583,267.083,263.74,267.083z"></path> </svg>

    <svg fill="#fff" version="1.1"  xmlns="http://www.w3.org/2000/svg"
         viewBox="0 0 612 612" width="60" x="75" y="80">
        <path
                d="M488.375,349.528c21.16,0,38.375-17.215,38.375-38.375s-17.215-38.375-38.375-38.375S450,289.993,450,311.153 S467.215,349.528,488.375,349.528z M488.375,301.817c5.147,0,9.336,4.188,9.336,9.336c0,5.148-4.188,9.337-9.336,9.337 s-9.336-4.188-9.336-9.337C479.039,306.005,483.228,301.817,488.375,301.817z"></path>
        <path d="M500.495,208.99c-21.551-13.459-44.423-23.837-67.994-30.845c-11.587-3.448-23.363-6.072-35.259-7.885 c-24.874-24.134-56.709-40.608-92.365-47.734c-28.032-5.604-48.765-3.513-49.636-3.424l-16.089,1.694l14.691,67.875 c-5.077,2.174-10.124,4.502-15.124,7.008c-32.569,16.285-62.242,38.878-88.366,67.271L0,160.254l45.347,149.779 c3.323,10.971,3.323,22.57,0,33.541L0,493.353l150.359-102.695c26.125,28.387,55.797,50.986,88.366,67.271 c37.729,18.867,77.774,28.428,119.017,28.428c19.495,0,39.032-2.197,58.071-6.527l21.693-4.935l-13.258-17.866 c-19.893-26.812-33.618-54.021-40.81-80.867c-5.675-21.207-7.315-42.284-4.875-62.65c4.117-34.324,18.648-55.389,19.246-56.242 l17.162-23.002l-28.879-0.053c-0.16,0-0.32,0-0.486,0c-41.923,0-84.101,9.78-122.013,28.298 c-19.199,9.378-35.543,19.584-49.98,31.207c-11.723,9.443-21.711,20.207-31.367,30.615c-3.584,3.862-7.292,7.855-10.971,11.652 c-7.695,7.933-16.468,15.675-26.177,23.109l-93.437,63.812l21.468-70.92c4.988-16.475,4.988-33.891,0-50.366l-21.468-70.92 l79.895,54.571l-18.358,22.736l22.587,18.246l28.097-34.792c52.402-61.371,121.244-95.173,193.853-95.173 c44.861,0,87.714,12.559,127.369,37.332c35.851,22.398,67.78,54.5,92.755,93.189c-15.68,24.312-33.961,45.898-54.428,64.268 c-19.738,17.713-41.177,32.119-63.871,42.937c-2.115-3.016-4.307-6.345-6.652-10.082c-28.5-45.431-37.735-84.463-29.062-122.856 l-28.322-6.397c-5.616,24.863-4.964,50.662,1.931,76.697c5.794,21.883,15.889,44.121,30.857,67.981 c5.545,8.833,10.444,15.775,15.432,21.848l6.884,8.376l9.988-4.218c29.465-12.445,57.123-30.17,82.211-52.681 c24.679-22.144,46.401-48.498,64.576-78.325l4.597-7.553l-4.597-7.553C579.442,273.341,542.472,235.215,500.495,208.99z M192.128,356.193c3.904-4.022,7.719-8.14,11.41-12.115c9.365-10.094,18.21-19.625,28.292-27.747 c12.725-10.249,27.286-19.318,44.512-27.73c26.699-13.038,55.744-21.243,85.179-24.157c-4.608,11.196-9.235,25.982-11.552,43.754 c-3.157,24.234-1.445,49.209,5.095,74.231c6.374,24.389,17.375,48.842,32.776,72.935c-9.981,1.304-20.046,1.961-30.099,1.961 c-68.113,0-132.902-29.744-183.924-84.077C180.381,367.697,186.501,361.998,192.128,356.193z M281.377,178.612l-6.646-30.721 c16.545,0.883,43.41,4.864,70.405,19.662C323.461,168.583,302.152,172.28,281.377,178.612z"></path> </svg>

    <svg height="60" y="250" x="90"  xmlns="http://www.w3.org/2000/svg"
         viewBox="0 0 512 512" fill="#fff">
        <style type="text/css"> .st2{fill:#fff;} </style>

        <path class="st0"
              d="M506.195,407.738c-1.917-2.98-3.63-5.371-5.049-7.307c-2.148-2.908-3.542-4.789-4.024-5.729 c-0.255-0.486-0.335-0.717-0.403-0.956c-0.06-0.239-0.115-0.534-0.119-1.187c-0.012-1.164,0.275-3.474,1.128-7.132 c0.844-3.666,2.199-8.646,4.06-15.292c5.164-18.487,7.61-36.337,7.61-53.398c0.02-38.249-12.347-72.411-33.078-100.493 c-20.296-27.531-48.504-49.309-80.981-64.338c-4.876-6.192-9.622-13.292-14.395-20.782c-7.758-12.144-15.575-25.165-24.866-36.56 c-4.65-5.697-9.694-10.988-15.38-15.507c-5.682-4.51-12.04-8.231-19.172-10.606c-3.646-1.211-7.108-1.912-10.558-1.912 c-2.044,0-4.084,0.254-6.04,0.82c-1.833,0.534-3.586,1.339-5.14,2.367c-2.936,1.928-5.088,4.558-6.586,7.227 c-1.323,2.351-2.219,4.782-2.912,7.244c-1.196,4.303-1.785,8.758-2.255,13.3c-0.686,6.805-1.064,13.818-1.98,20.049 c-0.45,3.108-1.036,6.016-1.789,8.542c-0.239,0.813-0.506,1.57-0.781,2.303c-43.831,6.925-81.61,21.722-112.804,43.716 c-31.245,22.025-55.784,51.238-73.244,86.396c-6.641,10.717-10.71,18.742-14.65,25.189c-4.008,6.534-7.758,11.562-14.75,17.818 c-14.164,12.622-27.344,26.208-38.325,39.651C18.73,354.627,9.937,367.895,4.582,380.334L0,391.036l11.527,1.642 c6.618,0.948,13.048,1.346,19.204,1.346c17.866-0.007,33.376-3.354,44.513-6.701c4.766-1.443,8.718-2.869,11.726-4.056 c3.57,3.944,7.455,7.57,11.478,10.869c8.722,7.124,18.021,12.782,26.042,16.766c4.024,2,7.71,3.57,10.965,4.71 c1.629,0.566,3.151,1.028,4.626,1.37c1.498,0.335,2.885,0.606,4.67,0.614c1-0.008,2.144-0.064,3.721-0.566l3.594-1.187l1.642-3.411 c3.419-7.068,4.662-14.312,4.646-21.117c-0.02-9.275-2.108-17.826-3.937-26.01c-1.864-8.192-3.514-15.992-3.502-23.627 c0.028-7.275,1.371-14.392,5.614-22.392c4.232-7.913,11.526-16.766,23.846-26.551c6.789-4.566,12.618-7.937,17.933-10.447 c8.104-3.801,14.981-5.674,22.997-6.734c7.997-1.044,17.196-1.164,29.114-1.155c0.61-0.008,1.626,0.055,2.865,0.207 c2.179,0.263,5.048,0.781,8.2,1.522c4.737,1.116,10.152,2.726,15.24,4.63c1.634,0.614,3.223,1.259,4.757,1.92 c-0.661,0.726-1.319,1.451-1.98,2.184c-8.881,9.682-17.874,19.03-24.898,27.412c-3.518,4.207-6.558,8.16-8.917,12.064 c-1.176,1.952-2.192,3.912-2.98,5.992c-0.777,2.088-1.367,4.335-1.375,6.948c0,1.155,0.128,2.382,0.442,3.626 c0.538,2.184,1.721,4.375,3.315,6.04c1.188,1.267,2.55,2.239,3.937,2.973c2.088,1.115,4.223,1.729,6.442,2.127 c2.219,0.391,4.546,0.55,7.088,0.558c24.771,0,46.836-2.167,65.749-5.546c16.272-2.916,30.177-6.718,41.536-10.862 c0.757,0.702,1.51,1.411,2.279,2.136l0.008,0.016c6.008,5.65,12.188,11.586,18.614,17.77c8.16,7.857,16.184,14.934,24.117,22.695 c7.937,7.762,15.81,16.216,23.822,26.91c10.411,13.89,20.029,23.563,28.843,29.978c4.414,3.203,8.63,5.594,12.722,7.227 c4.088,1.634,8.068,2.526,11.977,2.534c2.701,0,5.375-0.446,7.869-1.419c1.868-0.733,3.629-1.761,5.164-3.044 c2.307-1.928,4.064-4.414,5.16-7.084c1.103-2.677,1.586-5.506,1.586-8.327C511.976,419.571,509.908,413.547,506.195,407.738z M284.205,128.271h-0.008c-0.004,0-0.004,0-0.004,0H284.205z M493.963,427.006c-0.159,0.383-0.147,0.288-0.191,0.336 c-0.051,0.032-0.378,0.271-1.55,0.278c-1.104,0.008-2.928-0.278-5.355-1.251c-3.638-1.45-8.558-4.431-14.32-9.498 c-5.769-5.068-12.38-12.216-19.587-21.842c-8.673-11.586-17.275-20.806-25.627-28.974c-8.359-8.168-16.432-15.284-24.217-22.782 c-6.434-6.199-12.662-12.184-18.769-17.922l0.011,0.008c-2.167-2.048-4.319-4.064-6.486-6.048l-4.148-3.809l-5.22,2.104 c-10.853,4.391-25.507,8.702-43.341,11.889c-17.842,3.188-38.883,5.268-62.61,5.268c-0.844,0-1.582-0.032-2.227-0.08 c0.857-1.585,2.192-3.625,3.953-5.961c3.116-4.127,7.438-9.092,12.355-14.479c4.92-5.402,10.439-11.252,16.017-17.332 c4.885-5.331,9.829-10.837,14.479-16.415l0.008-0.016c4.267-5.14,8.279-10.327,11.789-15.531l-14.798-9.969 c-2.968,4.406-6.526,9.036-10.411,13.738c-2.116-1.075-4.311-2.072-6.562-3.012c-6.594-2.75-13.614-4.973-20.009-6.558 c-3.199-0.797-6.235-1.427-9.024-1.873c-2.797-0.439-5.303-0.717-7.706-0.717c-8,0-15.045,0.04-21.695,0.422 c-9.945,0.566-19.097,1.976-28.512,5.267c-9.419,3.283-18.938,8.352-30.113,15.89l-0.279,0.191l-0.267,0.216 c-13.87,10.981-23.058,21.682-28.759,32.337c-5.714,10.646-7.745,21.172-7.718,30.798c0.012,10.144,2.08,19.3,3.94,27.556 c1.885,8.264,3.522,15.642,3.498,22.08c-0.008,2.415-0.211,4.67-0.673,6.893c-1.964-0.756-4.275-1.745-6.814-2.988 c-5.785-2.828-12.642-6.837-19.16-11.682c-6.526-4.837-12.706-10.519-17.276-16.503l-4.478-5.856l-6.583,3.291 c-0.032,0.016-6.044,2.98-15.893,5.905c-9.853,2.932-23.54,5.817-38.907,5.809c-1.306,0-2.63-0.024-3.96-0.064 c4.355-7.419,10.048-15.475,16.758-23.675c10.276-12.59,22.858-25.57,36.373-37.611c8.311-7.371,13.614-14.432,18.116-21.858 c4.53-7.443,8.399-15.149,14.766-25.372l0.231-0.375l0.191-0.391c16.296-32.926,38.875-59.772,67.757-80.14 c28.835-20.335,64.052-34.233,105.816-40.767c0.239,0.008,0.964,0.079,2.227,0.111l5.06,0.072l2.662-4.295 c2.08-3.355,3.522-6.933,4.61-10.55c1.884-6.327,2.697-12.845,3.299-19.053c0.446-4.654,0.753-9.14,1.168-13.132 c0.307-2.996,0.677-5.714,1.151-7.953c0.351-1.689,0.765-3.092,1.184-4.135c0.311-0.781,0.622-1.346,0.868-1.714 c0.39-0.558,0.55-0.621,0.658-0.693c0.12-0.056,0.342-0.199,1.303-0.208c0.948-0.008,2.602,0.216,4.916,0.988 c6.443,2.151,12.34,6.032,18.045,11.419c8.542,8.048,16.391,19.428,24.153,31.603c7.794,12.176,15.515,25.102,24.603,36.306 l1.327,1.634l1.925,0.868c30.918,13.945,57.382,34.321,76.025,59.629c18.639,25.324,29.572,55.502,29.591,89.91 c0,15.356-2.191,31.572-6.948,48.592c-1.873,6.718-3.275,11.842-4.255,16.089c-0.973,4.247-1.57,7.666-1.586,11.14 c-0.012,2.526,0.394,5.116,1.23,7.426c0.618,1.729,1.422,3.259,2.256,4.622c1.263,2.032,2.578,3.737,4.02,5.706 c1.442,1.952,3.048,4.168,4.92,7.084c2.267,3.49,2.992,6.518,2.972,8.192C494.162,426.289,494.051,426.759,493.963,427.006z"></path>
        <path class="st0"
              d="M439.856,310.601c-6.092,0-11.033,4.941-11.033,11.044c0,6.088,4.941,11.029,11.033,11.029 c6.092,0,11.028-4.941,11.028-11.029C450.884,315.541,445.948,310.601,439.856,310.601z"></path> </svg>
</svg>