<svg width="400" height="400" viewBox="0 0 400 400" xmlns="http://www.w3.org/2000/svg">
    <rect x="0" y="0" width="400" height="400" rx="40" ry="40" fill="white"/>

    <svg y="140" x="30" width="150" height="150" viewBox="0 0 512 512" fill="#F67C6E">
        <path class="st0"
              d="
        M406.219,278.624
        c-0.172-0.906-0.406-2.109-0.688-3.625
        l0,0
        c-2.031-10.906-6.906-36.906-12.094-64.5
        v-0.031
        c-3.406-18.109-6.953-36.938-9.938-52.625
        c-1.484-7.844-2.828-14.922-3.953-20.734
        c-1.125-5.797-2.016-10.344-2.578-13.203
        c-1.219-6-3.734-11.516-7.156-16.313
        c-5.094-7.219-12.219-12.891-20.344-16.781
        c-8.109-3.891-17.297-6.031-26.813-6.031
        c-5.797,0-11.719,0.797-17.563,2.5
        c-5.813,1.719-11.563,4.359-17,7.969
        c-6.875,4.594-13.219,6.969-18.688,8.25
        c-2.719,0.641-5.25,1-7.484,1.219
        c-2.25,0.188-4.219,0.219-5.922,0.219
        c-1.625,0-3.047,0.063-4.406,0.063
        c-1.438,0-2.781-0.063-4.344-0.25
        c-2.328-0.281-5.125-0.906-8.938-2.344
        c-3.828-1.453-8.656-3.75-14.813-7.406
        c-11.063-6.563-23.094-9.531-34.563-9.531
        c-6.313,0-12.469,0.891-18.25,2.594
        c-8.688,2.563-16.594,6.938-22.875,13
        c-3.156,3.031-5.875,6.5-8.063,10.313
        c-2.172,3.844-3.797,8.063-4.688,12.531
        c-0.594,2.859-1.484,7.406-2.594,13.203
        c-3.375,17.422-8.813,46.172-13.906,73.359
        c-5.188,27.625-10.063,53.625-12.094,64.531
        l0,0
        c-0.281,1.516-0.516,2.719-0.688,3.625
        H0
        l6.188,12.609
        c0.313,0.609,3.375,6.656,11,15.359
        c11.453,13.063,33.25,32.063,71.156,47.688
        c10.813,4.469,22.953,8.625,36.516,12.344
        v4.641
        l41.547,48.047
        c0,0,48.031,9.078,51.938,7.781
        S256,392.03,256,392.03
        s33.75,33.766,37.656,35.063
        c3.891,1.297,51.938-7.781,51.938-7.781
        l41.563-48.047
        v-4.641
        c45.234-12.375,74.453-30.109,92.531-45.344
        c19-15.984,25.672-29.125,26.109-30.047
        L512,278.624
        H406.219
        z

        M135.75,213.718
        c3.406-18.125,6.969-36.938,9.938-52.609
        c1.5-7.844,2.844-14.891,3.953-20.672
        c1.125-5.781,2-10.313,2.547-13.047
        v-0.016
        c0.719-3.5,2.141-6.672,4.203-9.578
        c3.078-4.359,7.641-8.078,13.297-10.703
        c5.625-2.625,12.281-4.125,19.25-4.125
        c8.469,0,17.359,2.188,25.641,7.094
        c9.078,5.375,16.234,8.531,22.266,10.313
        c3.031,0.891,5.75,1.438,8.219,1.75
        s4.688,0.375,6.531,0.375
        c1.75,0,3.219-0.063,4.406-0.047
        c2,0,4.547-0.047,7.484-0.328
        c4.406-0.375,9.734-1.266,15.563-3.156
        c5.859-1.891,12.234-4.781,18.781-9.156
        c3.922-2.625,8.031-4.5,12.203-5.719
        c4.188-1.234,8.438-1.813,12.625-1.813
        c4.578,0,9.063,0.688,13.25,1.969
        c6.281,1.922,11.844,5.156,15.984,9.188
        c2.078,2.031,3.797,4.219,5.109,6.547
        c1.328,2.328,2.281,4.797,2.813,7.391
        v0.016
        c0.547,2.734,1.438,7.266,2.547,13.047
        c3.344,17.344,8.766,46.094,13.891,73.281
        l0,0
        c0.688,3.594,1.344,7.156,2,10.672
        h-244.5
        C134.406,220.874,135.078,217.312,135.75,213.718
        z

        M478.781,298.187
        c-11.047,11.625-31.406,28.125-66.672,41.859
        c-35.266,13.703-85.469,24.609-156.109,24.609
        c-49.313,0-88.656-5.313-119.922-13.172
        c-46.891-11.813-75.578-29.344-92.5-43.578
        c-5.109-4.313-9.125-8.313-12.266-11.781
        H256
        h224.688
        C480.094,296.796,479.453,297.483,478.781,298.187
        z
      ">
        </path>


    </svg>

    <svg fill="#F2C1BB" height="300px" width="300px" xmlns="http://www.w3.org/2000/svg"
         x="80" y="70"
         viewBox="0 0 503.532 503.532">
    <path
            d="
        M456.895,46.66
        C426.803,16.564,386.808,0,344.248,0
        c-42.552,0-82.56,16.568-112.652,46.66
        c-54.644,54.64-61.188,139.424-19.696,201.324
        l-2.952,2.944
        c-8.244,8.256-10.4,20.328-6.476,30.608
        l-29.828,29.824
        l-3.432-3.424
        c-1.508-1.508-3.92-1.548-5.48-0.084
        L8.564,453.796
        c-11.356,11.36-11.356,29.84,0,41.196
        c5.508,5.504,12.812,8.54,20.6,8.54
        c7.772,0,15.084-3.036,20.672-8.624
        l145.872-155.084
        c1.452-1.552,1.416-3.98-0.084-5.48
        l-3.436-3.432
        l29.832-29.82
        c3.304,1.256,6.792,1.916,10.276,1.916
        c7.364,0,14.728-2.792,20.328-8.4
        l2.916-2.92
        c26.024,17.52,56.636,26.94,88.708,26.94
        c42.56,0,82.556-16.576,112.648-46.664
        C519.016,209.844,519.016,108.772,456.895,46.66
        z

        M429.124,244.18
        c-22.672,22.66-52.816,35.152-84.876,35.152
        c-32.064,0-62.208-12.492-84.872-35.152
        c-46.8-46.792-46.8-122.944,0-169.744
        c22.664-22.676,52.808-35.152,84.88-35.152
        c32.06,0,62.204,12.476,84.868,35.144
        C475.928,121.22,475.928,197.372,429.124,244.18
        z
      ">
        </path>

    </svg>
    <svg width="112px" height="112px" viewBox="0 0 15 15" version="1.1"
         xmlns="http://www.w3.org/2000/svg"
         fill="#F67C6E" x="230" y="100">

        <path d="M10.71,4L7.85,1.15C7.6555,0.9539,7.339,0.9526,7.1429,1.1471C7.1419,1.1481,7.141,1.149,7.14,1.15L4.29,4H1.5
	C1.2239,4,1,4.2239,1,4.5v9C1,13.7761,1.2239,14,1.5,14h12c0.2761,0,0.5-0.2239,0.5-0.5v-9C14,4.2239,13.7761,4,13.5,4H10.71z
	 M7.5,2.21L9.29,4H5.71L7.5,2.21z M13,13H2V5h11V13z M5,8C4.4477,8,4,7.5523,4,7s0.4477-1,1-1s1,0.4477,1,1S5.5523,8,5,8z M12,12
	H4.5L6,9l1.25,2.5L9.5,7L12,12z"></path>

    </svg>
</svg>
