<svg width="400" height="400" viewBox="0 0 400 400" xmlns="http://www.w3.org/2000/svg">
    <rect x="0" y="0" width="400" height="400" rx="40" ry="40" fill="white"/>

    <svg fill="#F67C6E" height="350px" width="350px" version="1.1" x="30" y="30"
         xmlns="http://www.w3.org/2000/svg"
         viewBox="0 0 512.006 512.006">
        <path d="
    M508.029,371.603
    l-102.693,-143.77
    V42.67
    c0,-11.782,-9.551,-21.333,-21.333,-21.333
    h-256
    c-11.782,0,-21.333,9.551,-21.333,21.333
    v9.255
    L10.36,109.71
    c-10.678,6.407,-13.622,20.56,-6.384,30.693
    l102.693,143.77
    v185.163
    c0,11.782,9.551,21.333,21.333,21.333
    h256
    c11.782,0,21.333,-9.551,21.333,-21.333
    v-9.255
    l96.309,-57.786
    C512.324,395.889,515.267,381.737,508.029,371.603
    z

    M362.67,64.003
    V234.67
    H149.336
    V64.003
    H362.67
    z

    M106.67,101.682
    v109.085
    l-54.542,-76.359
    L106.67,101.682
    z

    M149.336,448.003
    V277.336
    H362.67
    v170.667
    H149.336
    z

    M405.336,410.324
    V301.24
    l54.542,76.359
    L405.336,410.324
    z
  "/>
    </svg>

    <svg viewBox="0 0 24 24" xmlns="http://www.w3.org/2000/svg" fill="#F2C1BB" width="100px" height="100px" x="150" y="80">
        <path d="M18.847 22H5.215L.397 9.544 12 1l11.6 8.543zM5.904 21h12.25l4.245-11.1L12 2.242 1.603 9.9z"></path>
        <path fill="none" d="M0 0h24v24H0z"></path>

    </svg>

    <g id="words" fill="#F2C1BB" font-family="'Comic Sans MS', cursive, sans-serif" font-size="20" font-weight="bold"
       text-anchor="middle" dominant-baseline="central">
        <text x="205" y="250">Which</text>
        <text x="205" y="270">geometric</text>
        <text x="205" y="290">shape has</text>
        <text x="205" y="310">4 equal sides?</text>
    </g>
</svg>