<svg viewBox="0 0 400 400" xmlns="http://www.w3.org/2000/svg">
    <rect x="0" y="0" width="400" height="400" rx="40" ry="40" fill="white"/>
    <svg fill="#1BA8E4" width="80px" height="80px" viewBox="0 0 32 32" xmlns="http://www.w3.org/2000/svg" x="50" y="110">
        <g>
            <path fill-rule="evenodd"
                  d="M8 16C12.4183 16 16 12.4183 16 8C16 3.58172 12.4183 0 8 0C3.58172 0 0 3.58172 0 8C0 12.4183 3.58172 16 8 16ZM8 3C6.34315 3 5 4.34315 5 6H7C7 5.44772 7.44772 5 8 5C8.55228 5 9 5.44772 9 6C9 6.55228 8.55228 7 8 7H7V9H8C8.55228 9 9 9.44772 9 10C9 10.5523 8.55228 11 8 11C7.44772 11 7 10.5523 7 10H5C5 11.6569 6.34315 13 8 13C9.65685 13 11 11.6569 11 10C11 9.23164 10.7111 8.53076 10.2361 8C10.7111 7.46924 11 6.76836 11 6C11 4.34315 9.65685 3 8 3Z"
                  fill="#1BA8E4"></path>
        </g>
    </svg>

    <svg fill="#1BA8E4" width="80px" height="80px" viewBox="0 0 32 32" xmlns="http://www.w3.org/2000/svg" x="165" y="20">
        <g>
            <path d="M16 3c-7.18 0-13 5.82-13 13s5.82 13 13 13 13-5.82 13-13-5.82-13-13-13zM20.342 20.426v2.297h-8.656c0.093-0.867 0.374-1.688 0.843-2.465 0.468-0.776 1.393-1.807 2.774-3.090 1.111-1.037 1.793-1.74 2.045-2.109 0.34-0.51 0.51-1.014 0.51-1.512 0-0.551-0.147-0.975-0.441-1.271s-0.7-0.444-1.219-0.444c-0.512 0-0.92 0.156-1.223 0.467s-0.478 0.827-0.523 1.549l-2.469-0.247c0.146-1.359 0.605-2.335 1.378-2.928s1.739-0.888 2.898-0.888c1.27 0 2.268 0.343 2.994 1.028s1.089 1.538 1.089 2.557c0 0.58-0.104 1.132-0.312 1.656s-0.537 1.074-0.988 1.647c-0.299 0.38-0.839 0.929-1.621 1.644-0.781 0.714-1.276 1.188-1.484 1.422s-0.376 0.463-0.505 0.686h4.91z"></path>
        </g>
    </svg>

    <svg fill="#1BA8E4" width="60px" height="80px" viewBox="0 0 32 32" xmlns="http://www.w3.org/2000/svg" x="300" y="120">
        <g>
            <path d="M16 3c-7.18 0-13 5.82-13 13s5.82 13 13 13 13-5.82 13-13-5.82-13-13-13zM19.546 20.68c-0.839 1.137-2.003 1.705-3.492 1.705-1.19 0-2.16-0.319-2.911-0.959-0.75-0.641-1.199-1.502-1.346-2.582l2.469-0.256c0.070 0.559 0.278 1 0.623 1.324 0.345 0.326 0.742 0.488 1.192 0.488 0.515 0 0.949-0.209 1.307-0.627 0.355-0.418 0.534-1.049 0.534-1.893 0-0.79-0.178-1.383-0.532-1.778-0.355-0.395-0.818-0.593-1.388-0.593-0.71 0-1.348 0.312-1.911 0.938l-1.997-0.289 1.266-6.711h6.531v2.312h-4.658l-0.397 2.192c0.553-0.273 1.117-0.411 1.693-0.411 1.099 0 2.030 0.399 2.795 1.196s1.146 1.832 1.146 3.103c-0.001 1.062-0.309 2.009-0.924 2.841z"></path>
        </g>
    </svg>

    <circle cx="200" cy="230" r="8" fill="#9BD6EF"/>
    <circle cx="200" cy="200" r="6" fill="#9BD6EF"/>
    <circle cx="200" cy="170" r="4" fill="#9BD6EF"/>
    <circle cx="200" cy="140" r="3" fill="#9BD6EF"/>
    <circle cx="200" cy="120" r="2" fill="#9BD6EF"/>

    <svg width="150px" height="150px" viewBox="0 0 24 24" fill="none" xmlns="http://www.w3.org/2000/svg" x="125" y="250">
        <g>
            <path d="M16 11L15.5 19M16 11C16 6.5 14.5 4 11.9999 2C9.5 4 8 6.5 8 11M16 11L18 12.5C19.259 13.4443 20 14.9262 20 16.5V19.4612C20 20.1849 19.2551 20.669 18.5939 20.375L15.5 19M8 11L8.5 19M8 11L6 12.5C4.74097 13.4443 4 14.9262 4 16.5V19.4612C4 20.1849 4.74485 20.669 5.40614 20.375L8.5 19M8.5 19H15.5M12 9V11"
                  stroke="#1BA8E4" stroke-width="2" stroke-linecap="round" stroke-linejoin="round"></path>
        </g>
    </svg>
</svg>
