<svg width="400" height="400" viewBox="0 0 400 400" xmlns="http://www.w3.org/2000/svg">
    <rect x="0" y="0" width="400" height="400" rx="40" ry="40" fill="white"/>

    <g transform="translate(120, 20) scale(8)">
        <path d="M5.5 5.5C5.5 4.11929 6.61929 3 8 3C9.38071 3 10.5 4.11929 10.5 5.5C10.5 6.88071 9.38071 8 8 8H7V11H8C11.0376 11 13.5 8.53757 13.5 5.5C13.5 2.46243 11.0376 0 8 0C4.96243 0 2.5 2.46243 2.5 5.5H5.5Z"
              fill="#9BD6EF"></path>
        <path d="M10 13H7V16H10V13Z" fill="#9BD6EF"></path>
    </g>

    <g transform="translate(5, 200) scale(5)">
        <path fill="#1BA8E4"
              d="M30 29.25h-3.279v-27.25c-0-0.414-0.336-0.75-0.75-0.75h-19.971c-0.414 0-0.75 0.336-0.75 0.75v0 27.25h-3.25c-0.414 0-0.75 0.336-0.75 0.75s0.336 0.75 0.75 0.75v0h28c0.414 0 0.75-0.336 0.75-0.75s-0.336-0.75-0.75-0.75v0zM6.75 29.25v-26.5h18.471v26.5zM20.48 15.46c-0.146 0.135-0.238 0.326-0.24 0.54v0c0 0.001-0 0.003-0 0.005 0 0.212 0.093 0.403 0.24 0.535l0.001 0.001c0.126 0.135 0.306 0.22 0.505 0.22 0.005 0 0.010-0 0.015-0h-0.001c0.204-0.001 0.388-0.085 0.519-0.22l0-0c0.142-0.138 0.232-0.328 0.24-0.539l0-0.001c-0.012-0.212-0.102-0.4-0.24-0.54l0 0c-0.136-0.126-0.319-0.203-0.52-0.203s-0.383 0.077-0.52 0.203l0-0z"/>
    </g>

    <svg fill="#9BD6EF" height="100px" width="300px" version="1.1" id="Layer_1" xmlns="http://www.w3.org/2000/svg"
         x="170" y="250"
         viewBox="0 0 512 512">
        <defs>
            <clipPath id="halfClip">
                <rect x="250" y="0" width="250" height="500"/>
            </clipPath>
        </defs>
        <path d="M463.669,207.941l-26.24-40.374c-2.922-4.49-7.83-7.183-13.152-7.229v-59.851c0-7.203-5.859-13.061-13.061-13.061H302.759V75.898c0-7.202-5.859-13.061-13.061-13.061H196.13c-7.203,0-13.061,5.859-13.061,13.061v11.528H74.614c-7.202,0-13.061,5.859-13.061,13.061v95.91l-19.62,19.62c-3.429,3.427-4.872,8.317-3.861,13.081l5.661,26.686c-4.588,2.028-7.801,6.616-7.801,11.946v180.672c0,7.202,5.859,13.061,13.061,13.061h7.271v12.667c0,7.202,5.859,13.061,13.061,13.061h36.114c7.202,0,13.061-5.859,13.061-13.061v-12.667h248.831v12.667c0,7.202,5.859,13.061,13.061,13.061h36.112c7.202,0,13.061-5.859,13.061-13.061v-12.667h7.271c7.203,0,13.061-5.859,13.061-13.061V267.731c0-6.203-4.35-11.399-10.157-12.725l22.92-28.148C467.085,221.422,467.49,213.82,463.669,207.941z M413.943,176.008l-11.301,17.384l-11.299-17.384H413.943z M326.316,225.089h13.094l9.59,29.58h-9.891C340.496,243.508,335.873,232.025,326.316,225.089z M204.29,373.449h77.249c7.203,0,13.061-5.859,13.061-13.061V300.97h109.173v114.191H82.056V300.97h109.172v59.417C191.229,367.59,197.088,373.449,204.29,373.449z M278.926,270.343v87.433h-72.025v-87.433H278.926z M223.963,203.46l-5.024-5.028h12.489l10.569,10.576c-1.403,1.218-2.705,2.554-3.879,4.005C234.379,208.621,229.48,205.294,223.963,203.46z M247.021,229.973c1.417-7.541,7.971-13.014,15.583-13.014c0.986,0,1.984,0.094,2.965,0.28c8.614,1.633,14.296,10.01,12.666,18.674c-1.416,7.539-7.968,13.011-15.577,13.011c-0.987,0-1.986-0.094-2.972-0.282C251.073,247.01,245.391,238.636,247.021,229.973z M277.265,204.906l6.994-7c0.016-0.016,0.028-0.032,0.043-0.048h12.494l-12.292,12.302C282.372,208.092,279.943,206.316,277.265,204.906z M283.889,182.185v-0.001l-18.265-18.279v-12.498l30.754,30.779H283.889z M269.772,190.23l-11.335,11.342c-0.498,0.066-0.993,0.141-1.484,0.231l-11.564-11.573l12.191-12.201L269.772,190.23z M249.951,163.495c-0.022,0.022-0.046,0.04-0.068,0.062l-18.971,18.987c-0.069,0.069-0.127,0.145-0.194,0.215h-12.511l31.744-31.77V163.495z M229.677,230.362c1.733,8.642-3.848,17.087-12.441,18.824c-1.043,0.211-2.103,0.318-3.154,0.318c-7.52,0-14.059-5.394-15.548-12.827c-1.734-8.642,3.847-17.086,12.443-18.823c1.044-0.211,2.104-0.318,3.155-0.318C221.649,217.536,228.187,222.93,229.677,230.362z M294.458,242.055c2.941-4.587,7.943-7.326,13.379-7.326c3.03,0,5.99,0.877,8.56,2.537c5.904,3.813,8.441,10.916,6.794,17.404h-30.74C291.388,250.512,291.966,245.944,294.458,242.055z M307.782,209.415l17.506-26.933l16.439,25.291l-1.067,1.643H307.782z M339.774,176.008h22.598l-11.3,17.385L339.774,176.008z M376.858,182.48l16.438,25.292l-1.069,1.645h-30.74l-1.069-1.644L376.858,182.48z M198.743,78.511h88.343v8.916h-88.343V78.511z M77.224,103.1h0.002h331.378v57.234h-79.028c-5.377,0-10.346,2.705-13.29,7.236l-4.868,7.49l-43.989-44.023c-2.629-2.633-6.126-4.083-9.848-4.083c-3.723,0-7.221,1.449-9.851,4.081l-49.307,49.348c-2.627,2.631-4.073,6.127-4.073,9.845c0,3.723,1.448,7.221,4.075,9.848l4.035,4.039c-9.037,3.596-15.772,11.138-18.535,20.165c-4.435-2.314-9.42-3.581-14.596-3.581c-2.328,0-4.63,0.257-6.872,0.76l-4.342-42.392c-0.644-6.275-5.223-11.37-11.396-12.678l-37.903-8.044c-0.98-0.207-1.982-0.312-2.982-0.312c-3.82,0-7.406,1.483-10.096,4.174l-18.515,18.514V103.1z M185.061,254.67h-31.408c-0.857-5.943,1.648-12.132,6.957-15.654c2.605-1.727,5.619-2.64,8.72-2.64c5.358,0,10.318,2.678,13.27,7.162C184.845,246.948,185.61,250.912,185.061,254.67z M131.358,243.285l5.811,11.384h-8.222L97.402,238.57l20.89-20.89l4.208,8.244c1.385,2.715,4.135,4.276,6.986,4.276c1.198,0,2.416-0.276,3.556-0.858c3.855-1.968,5.385-6.687,3.418-10.542l-6.517-12.77l13.771-13.771l3.816,37.255c-1.44,1.383-2.725,2.883-3.855,4.477c-2.343-2.181-5.883-2.789-8.898-1.25C130.92,234.709,129.391,239.43,131.358,243.285z M88.796,225.011l-4.292-20.227l20.227,4.29L88.796,225.011z M94.468,254.67H81.304l4.448-4.448L94.468,254.67z M90.156,189.96l8.87-8.87l2.389,11.259L90.156,189.96z M113.85,175.439l20.226,4.291l-15.936,15.936L113.85,175.439z M69.681,210.436l2.389,11.258l-11.259-2.389L69.681,210.436z M75.387,238.42l-15.935,15.936l-4.291-20.225L75.387,238.42z M102.827,471.52h-0.001H71.938v-10.055h30.889V471.52z M413.891,471.52h-30.887v-10.055h30.887V471.52z M434.224,445.791H51.605V270.343h139.623v14.954H79.444c-7.202,0-13.061,5.859-13.061,13.061v119.415c0,7.202,5.859,13.061,13.061,13.061h326.942c7.202,0,13.061-5.859,13.061-13.061V298.358c0-7.203-5.859-13.061-13.061-13.061H294.6v-14.954h139.624V445.791z M419.803,254.67h-54.325l-9.59-29.58h41.941l-4.354,13.429c-1.334,4.117,0.922,8.537,5.037,9.871c0.802,0.26,1.619,0.385,2.419,0.385c3.305,0,6.378-2.108,7.453-5.422l5.921-18.263h29.582L419.803,254.67z M413.059,209.415l-1.068-1.644l16.438-25.292l17.505,26.935H413.059z"
              clip-path="url(#halfClip)"/>
    </svg>

    <g transform="translate(180, 140) scale(7)">
        <path fill="#1BA8E4"
              d="M30 29.25h-1.25v-25.25c-0-0.414-0.336-0.75-0.75-0.75h-6c-0.414 0-0.75 0.336-0.75 0.75s0.336 0.75 0.75 0.75v0h5.25v25.25c0 0.414 0.336 0.75 0.75 0.75h2c0.414 0 0.75-0.336 0.75-0.75s-0.336-0.75-0.75-0.75v0zM17.853 1.26l-11.977 2c-0.357 0.062-0.626 0.37-0.626 0.74 0 0 0 0 0 0v0 25.25h-3.25c-0.414 0-0.75 0.336-0.75 0.75s0.336 0.75 0.75 0.75v0h15.977c0.414-0 0.75-0.336 0.75-0.75v0-28c-0.001-0.414-0.337-0.75-0.751-0.75-0.043 0-0.086 0.004-0.127 0.011l0.004-0.001zM6.75 29.25v-24.615l10.477-1.749v26.364zM13.979 15.3c-0.082-0.030-0.177-0.048-0.276-0.048-0.21 0-0.401 0.079-0.545 0.209l0.001-0.001c-0.136 0.139-0.22 0.33-0.22 0.54s0.084 0.401 0.22 0.54l-0-0c0.145 0.122 0.334 0.197 0.539 0.199h0.001c0.1-0.002 0.197-0.016 0.288-0.042l-0.008 0.002c0.094-0.039 0.173-0.092 0.24-0.159v0c0.136-0.139 0.22-0.33 0.22-0.54s-0.084-0.401-0.22-0.54l0 0c-0.067-0.068-0.147-0.122-0.236-0.158l-0.005-0.002z"/>
    </g>


</svg>

