<svg width="41" height="34" viewBox="0 0 41 40" fill="none" xmlns="http://www.w3.org/2000/svg">
<path d="M20.4375 0.125C9.21924 0.125 0.125 9.20703 0.125 20.4009C0.125 29.3608 5.94775 36.9658 14.0166 39.6514C15.0298 39.8345 15.75 38.7969 15.75 38.0156C15.75 37.5395 15.7622 36.9658 15.75 35.2812C10.0981 36.502 8.32812 32.5469 8.32812 32.5469C7.40039 30.2031 6.27734 29.5317 6.27734 29.5317C4.43408 28.2744 6.41162 28.311 6.41162 28.311C8.4502 28.4453 9.5 30.2031 9.5 30.2031C11.0625 32.9375 14.5903 32.6689 15.75 32.1562C15.75 30.9111 15.8843 30.0078 16.2261 29.4341C9.8418 28.311 6.36279 24.6245 6.375 19.522C6.38721 16.5068 7.42481 14.1631 9.10938 12.4297C8.37695 11.502 7.87647 8.32812 9.37793 6.375C13.1499 6.375 15.396 9.09717 15.396 9.09717C15.396 9.09717 17.166 8.32812 20.4253 8.32812C23.6968 8.32812 25.4546 9.06055 25.4546 9.06055C25.4546 9.06055 27.7129 6.375 31.4849 6.375C32.9863 8.32812 32.4858 11.502 31.8999 12.3687C33.5112 14.0654 34.5 16.4092 34.5 19.522C34.5 24.6245 31.0332 28.311 24.6611 29.4219C25.064 30.0322 25.125 30.8867 25.125 32.1562C25.125 34.8662 25.125 37.3442 25.125 38.0156C25.125 38.7969 25.833 39.8467 26.8706 39.6514C34.9395 36.9536 40.75 29.3608 40.75 20.4009C40.75 9.20703 31.6558 0.125 20.4375 0.125Z" fill="black"/>
</svg>
