<svg width="36" height="34" viewBox="0 0 36 36" fill="none" xmlns="http://www.w3.org/2000/svg">
<path d="M10.8 0.399902C5.06601 0.399902 0.400024 5.06589 0.400024 10.7999V25.1999C0.400024 30.9339 5.06601 35.5999 10.8 35.5999H25.2C30.934 35.5999 35.6 30.9339 35.6 25.1999V10.7999C35.6 5.06589 30.934 0.399902 25.2 0.399902H10.8ZM10.8 1.9999H25.2C30.0692 1.9999 34 5.93072 34 10.7999V25.1999C34 30.0691 30.0692 33.9999 25.2 33.9999H10.8C5.93084 33.9999 2.00002 30.0691 2.00002 25.1999V10.7999C2.00002 5.93072 5.93084 1.9999 10.8 1.9999ZM27.6 6.7999C27.1757 6.7999 26.7687 6.96847 26.4687 7.26853C26.1686 7.56859 26 7.97556 26 8.3999C26 8.82425 26.1686 9.23121 26.4687 9.53127C26.7687 9.83133 27.1757 9.9999 27.6 9.9999C28.0244 9.9999 28.4313 9.83133 28.7314 9.53127C29.0315 9.23121 29.2 8.82425 29.2 8.3999C29.2 7.97556 29.0315 7.56859 28.7314 7.26853C28.4313 6.96847 28.0244 6.7999 27.6 6.7999ZM18 9.1999C13.1494 9.1999 9.20002 13.1493 9.20002 17.9999C9.20002 22.8505 13.1494 26.7999 18 26.7999C22.8507 26.7999 26.8 22.8505 26.8 17.9999C26.8 13.1493 22.8507 9.1999 18 9.1999ZM18 10.7999C21.986 10.7999 25.2 14.014 25.2 17.9999C25.2 21.9858 21.986 25.1999 18 25.1999C14.0141 25.1999 10.8 21.9858 10.8 17.9999C10.8 14.014 14.0141 10.7999 18 10.7999Z" fill="black"/>
</svg>
